<svg width="256" height="262" viewBox="0 0 256 262" xmlns="http://www.w3.org/2000/svg" preserveAspectRatio="xMidYMid"><path d="M255.68 133.5c0-10.6-.93-18.3-2.95-26.3H130.7v47.6h71.8c-1.45 11.8-9.3 29.5-26.6 41.4l-.24 1.6 38.6 29.9 2.7.27c24.7-22.8 38.8-56.4 38.8-94.97" fill="#4285F4"/><path d="M130.7 261.1c35.1 0 64.6-11.47 86.2-31.2l-41.1-31.85c-11 7.6-25.8 12.97-45.1 12.97-34.5 0-63.8-22.8-74.2-54.4l-1.54.13-40.2 31.1-.52 1.5C35.29 231.1 79.9 261.1 130.7 261.1" fill="#34A853"/><path d="M56.5 156.6c-2.86-8.6-4.5-17.8-4.5-27.6 0-9.8 1.64-19 4.32-27.6l-.07-1.85-40.7-31.5-.33 1.6C3.79 86.1 0 107 0 129c0 22 3.79 42.9 15.22 59.4l41.28-31.8" fill="#FBBC05"/><path d="M130.7 50.5c24.4 0 40.8 10.5 50.1 19.3l36.5-35.7C195.2 12 165.8 0 130.7 0 79.9 0 35.29 30 15.22 72.6l41.28 31.8c10.4-31.6 39.7-53.9 74.2-53.9" fill="#EB4335"/></svg>